<svg viewBox="0 0 700 987" xmlns="http://www.w3.org/2000/svg"
    xmlns:xlink="http://www.w3.org/1999/xlink">
    <mask id="mask0" mask-type="alpha">
        <path
            d="M44.9,-63.4C54.9,-54.5,57.4,-37,61.7,-20.7C66.1,-4.5,72.3,10.5,70.9,
            25.5C69.4,40.5,60.3,55.5,47.2,63C34.1,70.6,17.1,70.8,2.2,67.7C-12.6,64.7,
            -25.3,58.4,-37.5,50.6C-49.7,42.7,-61.5,33.3,-69.3,20C-77,6.7,-80.7,-10.3,
            -78.1,-27.5C-75.4,-44.7,-66.5,-61.9,-52.4,-69.5C-38.4,-77,-19.2,-74.8,-0.9,
            -73.6C17.5,-72.4,34.9,-72.3,44.9,-63.4Z" />
    </mask>
    <g mask="url(#mask0)">
        <path
             d="M44.9,-63.4C54.9,-54.5,57.4,-37,61.7,-20.7C66.1,-4.5,72.3,10.5,70.9,
            25.5C69.4,40.5,60.3,55.5,47.2,63C34.1,70.6,17.1,70.8,2.2,67.7C-12.6,64.7,
            -25.3,58.4,-37.5,50.6C-49.7,42.7,-61.5,33.3,-69.3,20C-77,6.7,-80.7,-10.3,
            -78.1,-27.5C-75.4,-44.7,-66.5,-61.9,-52.4,-69.5C-38.4,-77,-19.2,-74.8,-0.9,
            -73.6C17.5,-72.4,34.9,-72.3,44.9,-63.4Z"/>
        <image href="" />
    </g>
</svg>
